<?xml version="1.0" encoding="UTF-8" standalone="no"?>
<!DOCTYPE svg PUBLIC "-//W3C//DTD SVG 1.1//EN"
 "http://www.w3.org/Graphics/SVG/1.1/DTD/svg11.dtd">
<!-- Generated by graphviz version 14.1.2 (20260124.0452)
 -->
<!-- Title: classes_webtris_graph Pages: 1 -->
<svg width="1503pt" height="309pt"
 viewBox="0.00 0.00 1503.00 309.00" xmlns="http://www.w3.org/2000/svg" xmlns:xlink="http://www.w3.org/1999/xlink">
<g id="graph0" class="graph" transform="scale(1 1) rotate(0) translate(4 304.5)">
<title>classes_webtris_graph</title>
<polygon fill="white" stroke="none" points="-4,4 -4,-304.5 1499.38,-304.5 1499.38,4 -4,4"/>
<!-- webtris_graph.BreadthFirstSearch -->
<g id="node1" class="node">
<title>webtris_graph.BreadthFirstSearch</title>
<polygon fill="none" stroke="black" points="0,-12.75 0,-61.75 412,-61.75 412,-12.75 0,-12.75"/>
<text xml:space="preserve" text-anchor="start" x="153.88" y="-44.45" font-family="Times,serif" font-size="14.00">BreadthFirstSearch</text>
<polyline fill="none" stroke="black" points="0,-37.25 412,-37.25"/>
<polyline fill="none" stroke="black" points="0,-37.25 412,-37.25"/>
<text xml:space="preserve" text-anchor="start" x="8" y="-19.95" font-family="Times,serif" font-size="14.00">search(head: RouteSegment, target: RouteSegment): list[RouteSegment]</text>
</g>
<!-- webtris_graph.SearchStrategy -->
<g id="node6" class="node">
<title>webtris_graph.SearchStrategy</title>
<polygon fill="none" stroke="black" points="429.25,-181 429.25,-230 842.75,-230 842.75,-181 429.25,-181"/>
<text xml:space="preserve" text-anchor="start" x="595.12" y="-212.7" font-family="Times,serif" font-size="14.00">SearchStrategy</text>
<polyline fill="none" stroke="black" points="429.25,-205.5 842.75,-205.5"/>
<polyline fill="none" stroke="black" points="429.25,-205.5 842.75,-205.5"/>
<text xml:space="preserve" text-anchor="start" x="437.25" y="-189.2" font-family="Times,serif" font-style="italic" font-size="14.00">search</text>
<text xml:space="preserve" text-anchor="start" x="473.25" y="-189.2" font-family="Times,serif" font-size="14.00">(head: RouteSegment, target: RouteSegment): list[RouteSegment]</text>
</g>
<!-- webtris_graph.BreadthFirstSearch&#45;&gt;webtris_graph.SearchStrategy -->
<g id="edge1" class="edge">
<title>webtris_graph.BreadthFirstSearch&#45;&gt;webtris_graph.SearchStrategy</title>
<path fill="none" stroke="black" d="M206,-62.08C206,-108.88 206,-205.5 206,-205.5 206,-205.5 417.36,-205.5 417.36,-205.5"/>
<polygon fill="none" stroke="black" points="417.36,-209 427.36,-205.5 417.36,-202 417.36,-209"/>
</g>
<!-- webtris_graph.DepthFirstSearch -->
<g id="node2" class="node">
<title>webtris_graph.DepthFirstSearch</title>
<polygon fill="none" stroke="black" points="430,-12.75 430,-61.75 842,-61.75 842,-12.75 430,-12.75"/>
<text xml:space="preserve" text-anchor="start" x="588.75" y="-44.45" font-family="Times,serif" font-size="14.00">DepthFirstSearch</text>
<polyline fill="none" stroke="black" points="430,-37.25 842,-37.25"/>
<polyline fill="none" stroke="black" points="430,-37.25 842,-37.25"/>
<text xml:space="preserve" text-anchor="start" x="438" y="-19.95" font-family="Times,serif" font-size="14.00">search(head: RouteSegment, target: RouteSegment): list[RouteSegment]</text>
</g>
<!-- webtris_graph.DepthFirstSearch&#45;&gt;webtris_graph.SearchStrategy -->
<g id="edge2" class="edge">
<title>webtris_graph.DepthFirstSearch&#45;&gt;webtris_graph.SearchStrategy</title>
<path fill="none" stroke="black" d="M636,-62.08C636,-62.08 636,-169.06 636,-169.06"/>
<polygon fill="none" stroke="black" points="632.5,-169.06 636,-179.06 639.5,-169.06 632.5,-169.06"/>
</g>
<!-- webtris_graph.DijkstrasAlgoSearch -->
<g id="node3" class="node">
<title>webtris_graph.DijkstrasAlgoSearch</title>
<polygon fill="none" stroke="black" points="860,-12.75 860,-61.75 1272,-61.75 1272,-12.75 860,-12.75"/>
<text xml:space="preserve" text-anchor="start" x="1009.75" y="-44.45" font-family="Times,serif" font-size="14.00">DijkstrasAlgoSearch</text>
<polyline fill="none" stroke="black" points="860,-37.25 1272,-37.25"/>
<polyline fill="none" stroke="black" points="860,-37.25 1272,-37.25"/>
<text xml:space="preserve" text-anchor="start" x="868" y="-19.95" font-family="Times,serif" font-size="14.00">search(head: RouteSegment, target: RouteSegment): list[RouteSegment]</text>
</g>
<!-- webtris_graph.DijkstrasAlgoSearch&#45;&gt;webtris_graph.SearchStrategy -->
<g id="edge3" class="edge">
<title>webtris_graph.DijkstrasAlgoSearch&#45;&gt;webtris_graph.SearchStrategy</title>
<path fill="none" stroke="black" d="M1052.31,-62.08C1052.31,-108.88 1052.31,-205.5 1052.31,-205.5 1052.31,-205.5 854.76,-205.5 854.76,-205.5"/>
<polygon fill="none" stroke="black" points="854.76,-202 844.76,-205.5 854.76,-209 854.76,-202"/>
</g>
<!-- webtris_graph.RouteSegment -->
<g id="node4" class="node">
<title>webtris_graph.RouteSegment</title>
<polygon fill="none" stroke="black" points="1244.62,-111 1244.62,-300 1495.38,-300 1495.38,-111 1244.62,-111"/>
<text xml:space="preserve" text-anchor="start" x="1329.88" y="-282.7" font-family="Times,serif" font-size="14.00">RouteSegment</text>
<polyline fill="none" stroke="black" points="1244.62,-275.5 1495.38,-275.5"/>
<text xml:space="preserve" text-anchor="start" x="1268.75" y="-258.2" font-family="Times,serif" font-size="14.00">date : datetime</text>
<text xml:space="preserve" text-anchor="start" x="1268.75" y="-241.7" font-family="Times,serif" font-size="14.00">length : float</text>
<text xml:space="preserve" text-anchor="start" x="1268.75" y="-225.2" font-family="Times,serif" font-size="14.00">name : str</text>
<text xml:space="preserve" text-anchor="start" x="1268.75" y="-208.7" font-family="Times,serif" font-size="14.00">next_segments : list[&#39;RouteSegment&#39;]</text>
<text xml:space="preserve" text-anchor="start" x="1268.75" y="-192.2" font-family="Times,serif" font-size="14.00">sites : list[Site]</text>
<polyline fill="none" stroke="black" points="1244.62,-185 1495.38,-185"/>
<text xml:space="preserve" text-anchor="start" x="1252.62" y="-167.7" font-family="Times,serif" font-size="14.00">append_site_by_id(new_site_id: int): None</text>
<text xml:space="preserve" text-anchor="start" x="1252.62" y="-151.2" font-family="Times,serif" font-size="14.00">get_average_speed(): float</text>
<text xml:space="preserve" text-anchor="start" x="1252.62" y="-134.7" font-family="Times,serif" font-size="14.00">get_traversal_time(): float</text>
<text xml:space="preserve" text-anchor="start" x="1252.62" y="-118.2" font-family="Times,serif" font-size="14.00">remove_site_by_id(old_site_id: int): None</text>
</g>
<!-- webtris_graph.RouteSegmentExternal -->
<g id="node5" class="node">
<title>webtris_graph.RouteSegmentExternal</title>
<polygon fill="none" stroke="black" points="1290,-0.5 1290,-74 1450,-74 1450,-0.5 1290,-0.5"/>
<text xml:space="preserve" text-anchor="start" x="1307" y="-56.7" font-family="Times,serif" font-size="14.00">RouteSegmentExternal</text>
<polyline fill="none" stroke="black" points="1290,-49.5 1450,-49.5"/>
<text xml:space="preserve" text-anchor="start" x="1323.5" y="-32.2" font-family="Times,serif" font-size="14.00">avg_speed : float</text>
<polyline fill="none" stroke="black" points="1290,-25 1450,-25"/>
<text xml:space="preserve" text-anchor="start" x="1298" y="-7.7" font-family="Times,serif" font-size="14.00">get_average_speed(): float</text>
</g>
<!-- webtris_graph.RouteSegmentExternal&#45;&gt;webtris_graph.RouteSegment -->
<g id="edge4" class="edge">
<title>webtris_graph.RouteSegmentExternal&#45;&gt;webtris_graph.RouteSegment</title>
<path fill="none" stroke="black" d="M1370,-74.17C1370,-74.17 1370,-99.28 1370,-99.28"/>
<polygon fill="none" stroke="black" points="1366.5,-99.28 1370,-109.28 1373.5,-99.28 1366.5,-99.28"/>
</g>
</g>
</svg>
