<?xml version="1.0" encoding="UTF-8" standalone="no"?>
<!DOCTYPE svg PUBLIC "-//W3C//DTD SVG 1.1//EN"
 "http://www.w3.org/Graphics/SVG/1.1/DTD/svg11.dtd">
<!-- Generated by graphviz version 14.1.2 (20260124.0452)
 -->
<!-- Title: reports Pages: 1 -->
<svg width="510pt" height="424pt"
 viewBox="0.00 0.00 510.00 424.00" xmlns="http://www.w3.org/2000/svg" xmlns:xlink="http://www.w3.org/1999/xlink">
<g id="graph0" class="graph" transform="scale(1 1) rotate(0) translate(4 420)">
<title>reports</title>
<polygon fill="white" stroke="none" points="-4,4 -4,-420 505.88,-420 505.88,4 -4,4"/>
<!-- webtris_client.DailyReportRequest -->
<g id="node1" class="node">
<title>webtris_client.DailyReportRequest</title>
<polygon fill="none" stroke="black" points="0,-37.25 0,-136.25 126.25,-136.25 126.25,-37.25 0,-37.25"/>
<text xml:space="preserve" text-anchor="start" x="8" y="-118.95" font-family="Times,serif" font-size="14.00">DailyReportRequest</text>
<polyline fill="none" stroke="black" points="0,-111.75 126.25,-111.75"/>
<text xml:space="preserve" text-anchor="start" x="17" y="-95.45" font-family="Times,serif" text-decoration="underline" font-size="14.00">ENDPOINT</text>
<text xml:space="preserve" text-anchor="start" x="84.5" y="-95.45" font-family="Times,serif" font-size="14.00"> : str</text>
<text xml:space="preserve" text-anchor="start" x="17" y="-81.45" font-family="Times,serif" font-size="14.00">date : datetime</text>
<text xml:space="preserve" text-anchor="start" x="17" y="-67.45" font-family="Times,serif" font-size="14.00">site_id : int</text>
<polyline fill="none" stroke="black" points="0,-61.75 126.25,-61.75"/>
<text xml:space="preserve" text-anchor="start" x="29.75" y="-44.45" font-family="Times,serif" font-size="14.00">send(): &#39;Site&#39;</text>
</g>
<!-- webtris_client.FifteenMinuteObservation -->
<g id="node2" class="node">
<title>webtris_client.FifteenMinuteObservation</title>
<polygon fill="none" stroke="black" points="143.88,-0.5 143.88,-173 494.38,-173 494.38,-0.5 143.88,-0.5"/>
<text xml:space="preserve" text-anchor="start" x="247.12" y="-155.7" font-family="Times,serif" font-size="14.00">FifteenMinuteObservation</text>
<polyline fill="none" stroke="black" points="143.88,-148.5 494.38,-148.5"/>
<text xml:space="preserve" text-anchor="start" x="234" y="-131.2" font-family="Times,serif" font-size="14.00">average_speed : float</text>
<text xml:space="preserve" text-anchor="start" x="234" y="-114.7" font-family="Times,serif" font-size="14.00">date : datetime</text>
<text xml:space="preserve" text-anchor="start" x="234" y="-98.2" font-family="Times,serif" font-size="14.00">end_datetime : datetime</text>
<text xml:space="preserve" text-anchor="start" x="234" y="-81.7" font-family="Times,serif" font-size="14.00">end_time_minutes_in_day : int</text>
<text xml:space="preserve" text-anchor="start" x="234" y="-65.2" font-family="Times,serif" font-size="14.00">site_id : int</text>
<text xml:space="preserve" text-anchor="start" x="234" y="-48.7" font-family="Times,serif" font-size="14.00">site_name : str</text>
<text xml:space="preserve" text-anchor="start" x="234" y="-32.2" font-family="Times,serif" font-size="14.00">vehicle_count : int</text>
<polyline fill="none" stroke="black" points="143.88,-25 494.38,-25"/>
<text xml:space="preserve" text-anchor="start" x="151.88" y="-8.7" font-family="Times,serif" text-decoration="underline" font-size="14.00">from_dict(site_id: int, data: dict): &#39;FifteenMinuteObservation&#39;</text>
</g>
<!-- webtris_client.DailyReportRequest&#45;&gt;webtris_client.FifteenMinuteObservation -->
<g id="edge3" class="edge">
<title>webtris_client.DailyReportRequest&#45;&gt;webtris_client.FifteenMinuteObservation</title>
<path fill="none" stroke="black" d="M126.73,-87C132.21,-87 137.91,-87 143.75,-87"/>
</g>
<!-- webtris_client.ReportRequest -->
<g id="node3" class="node">
<title>webtris_client.ReportRequest</title>
<polygon fill="none" stroke="black" points="9,-267.75 9,-357.75 117.25,-357.75 117.25,-267.75 9,-267.75"/>
<text xml:space="preserve" text-anchor="start" x="30.5" y="-340.45" font-family="Times,serif" font-size="14.00">&lt;&lt;utility&gt;&gt;</text>
<text xml:space="preserve" text-anchor="start" x="23" y="-323.95" font-family="Times,serif" font-size="14.00">ReportRequest</text>
<polyline fill="none" stroke="black" points="9,-316.75 117.25,-316.75"/>
<text xml:space="preserve" text-anchor="start" x="17" y="-300.45" font-family="Times,serif" text-decoration="underline" font-size="14.00">ENDPOINT</text>
<text xml:space="preserve" text-anchor="start" x="84.5" y="-300.45" font-family="Times,serif" font-size="14.00"> : str</text>
<polyline fill="none" stroke="black" points="9,-292.25 117.25,-292.25"/>
<text xml:space="preserve" text-anchor="start" x="61.25" y="-274.95" font-family="Times,serif" font-size="14.00"> </text>
</g>
<!-- webtris_client.DailyReportRequest&#45;&gt;webtris_client.ReportRequest -->
<g id="edge1" class="edge">
<title>webtris_client.DailyReportRequest&#45;&gt;webtris_client.ReportRequest</title>
<path fill="none" stroke="black" d="M63.12,-136.63C63.12,-136.63 63.12,-256.09 63.12,-256.09"/>
<polygon fill="none" stroke="black" points="59.63,-256.09 63.13,-266.09 66.63,-256.09 59.63,-256.09"/>
</g>
<!-- webtris_client.Site -->
<g id="node4" class="node">
<title>webtris_client.Site</title>
<polygon fill="none" stroke="black" points="136.38,-210 136.38,-415.5 501.88,-415.5 501.88,-210 136.38,-210"/>
<text xml:space="preserve" text-anchor="start" x="308.62" y="-398.2" font-family="Times,serif" font-size="14.00">Site</text>
<polyline fill="none" stroke="black" points="136.38,-391 501.88,-391"/>
<text xml:space="preserve" text-anchor="start" x="278.62" y="-373.7" font-family="Times,serif" font-size="14.00">date : datetime</text>
<text xml:space="preserve" text-anchor="start" x="278.62" y="-357.2" font-family="Times,serif" font-size="14.00">site_id : int</text>
<polyline fill="none" stroke="black" points="136.38,-350 501.88,-350"/>
<text xml:space="preserve" text-anchor="start" x="144.38" y="-332.7" font-family="Times,serif" font-size="14.00">get_average_speed(): float</text>
<text xml:space="preserve" text-anchor="start" x="144.38" y="-316.2" font-family="Times,serif" font-size="14.00">get_hourly_average_speed(hour: int): float</text>
<text xml:space="preserve" text-anchor="start" x="144.38" y="-299.7" font-family="Times,serif" font-size="14.00">get_hourly_vehicle_count(hour: int): int</text>
<text xml:space="preserve" text-anchor="start" x="144.38" y="-283.2" font-family="Times,serif" font-size="14.00">get_observations_list(): list[FifteenMinuteObservation]</text>
<text xml:space="preserve" text-anchor="start" x="144.38" y="-266.7" font-family="Times,serif" font-size="14.00">get_peak_hour(): int</text>
<text xml:space="preserve" text-anchor="start" x="144.38" y="-250.2" font-family="Times,serif" font-size="14.00">get_records_for_hour(hour: int): list[FifteenMinuteObservation]</text>
<text xml:space="preserve" text-anchor="start" x="144.38" y="-233.7" font-family="Times,serif" font-size="14.00">get_vehicle_count(): int</text>
<text xml:space="preserve" text-anchor="start" x="144.38" y="-217.2" font-family="Times,serif" font-size="14.00">update_data()</text>
</g>
<!-- webtris_client.FifteenMinuteObservation&#45;&gt;webtris_client.Site -->
<g id="edge2" class="edge">
<title>webtris_client.FifteenMinuteObservation&#45;&gt;webtris_client.Site</title>
<path fill="none" stroke="black" d="M319.12,-173.48C319.12,-173.48 319.12,-196.57 319.12,-196.57"/>
<polygon fill="none" stroke="black" points="319.13,-196.72 323.13,-202.72 319.13,-208.72 315.13,-202.72 319.13,-196.72"/>
</g>
</g>
</svg>
