<?xml version="1.0" encoding="UTF-8" standalone="no"?>
<!DOCTYPE svg PUBLIC "-//W3C//DTD SVG 1.1//EN"
 "http://www.w3.org/Graphics/SVG/1.1/DTD/svg11.dtd">
<!-- Generated by graphviz version 14.1.2 (20260124.0452)
 -->
<!-- Title: reports Pages: 1 -->
<svg width="534pt" height="441pt"
 viewBox="0.00 0.00 534.00 441.00" xmlns="http://www.w3.org/2000/svg" xmlns:xlink="http://www.w3.org/1999/xlink">
<g id="graph0" class="graph" transform="scale(1 1) rotate(0) translate(4 436.5)">
<title>reports</title>
<polygon fill="white" stroke="none" points="-4,4 -4,-436.5 530.12,-436.5 530.12,4 -4,4"/>
<!-- webtris_client.DailyReportRequest -->
<g id="node1" class="node">
<title>webtris_client.DailyReportRequest</title>
<polygon fill="none" stroke="black" points="0,-45.5 0,-144.5 198.25,-144.5 198.25,-45.5 0,-45.5"/>
<text xml:space="preserve" text-anchor="start" x="44" y="-127.2" font-family="Times,serif" font-size="14.00">DailyReportRequest</text>
<polyline fill="none" stroke="black" points="0,-120 198.25,-120"/>
<text xml:space="preserve" text-anchor="start" x="53" y="-103.7" font-family="Times,serif" text-decoration="underline" font-size="14.00">ENDPOINT</text>
<text xml:space="preserve" text-anchor="start" x="120.5" y="-103.7" font-family="Times,serif" font-size="14.00"> : str</text>
<text xml:space="preserve" text-anchor="start" x="53" y="-89.7" font-family="Times,serif" font-size="14.00">date : datetime</text>
<text xml:space="preserve" text-anchor="start" x="53" y="-75.7" font-family="Times,serif" font-size="14.00">site_id : int</text>
<polyline fill="none" stroke="black" points="0,-70 198.25,-70"/>
<text xml:space="preserve" text-anchor="start" x="8" y="-52.7" font-family="Times,serif" font-size="14.00">send(): list[&quot;TrafficObservation&quot;]</text>
</g>
<!-- webtris_client.TrafficObservation -->
<g id="node2" class="node">
<title>webtris_client.TrafficObservation</title>
<polygon fill="none" stroke="black" points="216.12,-0.5 216.12,-189.5 526.12,-189.5 526.12,-0.5 216.12,-0.5"/>
<text xml:space="preserve" text-anchor="start" x="331" y="-172.2" font-family="Times,serif" font-size="14.00">&lt;&lt;readonly&gt;&gt;</text>
<text xml:space="preserve" text-anchor="start" x="319.38" y="-155.7" font-family="Times,serif" font-size="14.00">TrafficObservation</text>
<polyline fill="none" stroke="black" points="216.12,-148.5 526.12,-148.5"/>
<text xml:space="preserve" text-anchor="start" x="286" y="-131.2" font-family="Times,serif" font-size="14.00">average_speed : float</text>
<text xml:space="preserve" text-anchor="start" x="286" y="-114.7" font-family="Times,serif" font-size="14.00">date : datetime</text>
<text xml:space="preserve" text-anchor="start" x="286" y="-98.2" font-family="Times,serif" font-size="14.00">end_datetime : datetime</text>
<text xml:space="preserve" text-anchor="start" x="286" y="-81.7" font-family="Times,serif" font-size="14.00">end_time_minutes_in_day : int</text>
<text xml:space="preserve" text-anchor="start" x="286" y="-65.2" font-family="Times,serif" font-size="14.00">site_id : int</text>
<text xml:space="preserve" text-anchor="start" x="286" y="-48.7" font-family="Times,serif" font-size="14.00">site_name : str</text>
<text xml:space="preserve" text-anchor="start" x="286" y="-32.2" font-family="Times,serif" font-size="14.00">vehicle_count : int</text>
<polyline fill="none" stroke="black" points="216.12,-25 526.12,-25"/>
<text xml:space="preserve" text-anchor="start" x="224.12" y="-8.7" font-family="Times,serif" text-decoration="underline" font-size="14.00">from_dict(site_id: int, data: dict): &#39;TrafficObservation&#39;</text>
</g>
<!-- webtris_client.DailyReportRequest&#45;&gt;webtris_client.TrafficObservation -->
<g id="edge3" class="edge">
<title>webtris_client.DailyReportRequest&#45;&gt;webtris_client.TrafficObservation</title>
<path fill="none" stroke="black" d="M198.48,-94.5C204.24,-94.5 210.11,-94.5 216.02,-94.5"/>
</g>
<!-- webtris_client.ReportRequest -->
<g id="node3" class="node">
<title>webtris_client.ReportRequest</title>
<polygon fill="none" stroke="black" points="45,-284.25 45,-374.25 153.25,-374.25 153.25,-284.25 45,-284.25"/>
<text xml:space="preserve" text-anchor="start" x="66.5" y="-356.95" font-family="Times,serif" font-size="14.00">&lt;&lt;utility&gt;&gt;</text>
<text xml:space="preserve" text-anchor="start" x="59" y="-340.45" font-family="Times,serif" font-size="14.00">ReportRequest</text>
<polyline fill="none" stroke="black" points="45,-333.25 153.25,-333.25"/>
<text xml:space="preserve" text-anchor="start" x="53" y="-316.95" font-family="Times,serif" text-decoration="underline" font-size="14.00">ENDPOINT</text>
<text xml:space="preserve" text-anchor="start" x="120.5" y="-316.95" font-family="Times,serif" font-size="14.00"> : str</text>
<polyline fill="none" stroke="black" points="45,-308.75 153.25,-308.75"/>
<text xml:space="preserve" text-anchor="start" x="97.25" y="-291.45" font-family="Times,serif" font-size="14.00"> </text>
</g>
<!-- webtris_client.DailyReportRequest&#45;&gt;webtris_client.ReportRequest -->
<g id="edge1" class="edge">
<title>webtris_client.DailyReportRequest&#45;&gt;webtris_client.ReportRequest</title>
<path fill="none" stroke="black" d="M99.12,-144.97C99.12,-144.97 99.12,-272.6 99.12,-272.6"/>
<polygon fill="none" stroke="black" points="95.63,-272.6 99.13,-282.6 102.63,-272.6 95.63,-272.6"/>
</g>
<!-- webtris_client.Site -->
<g id="node4" class="node">
<title>webtris_client.Site</title>
<polygon fill="none" stroke="black" points="186.62,-226.5 186.62,-432 523.62,-432 523.62,-226.5 186.62,-226.5"/>
<text xml:space="preserve" text-anchor="start" x="344.62" y="-414.7" font-family="Times,serif" font-size="14.00">Site</text>
<polyline fill="none" stroke="black" points="186.62,-407.5 523.62,-407.5"/>
<text xml:space="preserve" text-anchor="start" x="314.62" y="-390.2" font-family="Times,serif" font-size="14.00">date : datetime</text>
<text xml:space="preserve" text-anchor="start" x="314.62" y="-373.7" font-family="Times,serif" font-size="14.00">site_id : int</text>
<polyline fill="none" stroke="black" points="186.62,-366.5 523.62,-366.5"/>
<text xml:space="preserve" text-anchor="start" x="194.62" y="-349.2" font-family="Times,serif" font-size="14.00">get_average_speed(): float</text>
<text xml:space="preserve" text-anchor="start" x="194.62" y="-332.7" font-family="Times,serif" font-size="14.00">get_hourly_average_speed(hour: int): float</text>
<text xml:space="preserve" text-anchor="start" x="194.62" y="-316.2" font-family="Times,serif" font-size="14.00">get_hourly_vehicle_count(hour: int): int</text>
<text xml:space="preserve" text-anchor="start" x="194.62" y="-299.7" font-family="Times,serif" font-size="14.00">get_observations_list(): list[&quot;TrafficObservation&quot;]</text>
<text xml:space="preserve" text-anchor="start" x="194.62" y="-283.2" font-family="Times,serif" font-size="14.00">get_peak_hour(): int</text>
<text xml:space="preserve" text-anchor="start" x="194.62" y="-266.7" font-family="Times,serif" font-size="14.00">get_records_for_hour(hour: int): list[&quot;TrafficObservation&quot;]</text>
<text xml:space="preserve" text-anchor="start" x="194.62" y="-250.2" font-family="Times,serif" font-size="14.00">get_vehicle_count(): int</text>
<text xml:space="preserve" text-anchor="start" x="194.62" y="-233.7" font-family="Times,serif" font-size="14.00">update_data()</text>
</g>
<!-- webtris_client.DailyReportRequest&#45;&gt;webtris_client.Site -->
<g id="edge4" class="edge">
<title>webtris_client.DailyReportRequest&#45;&gt;webtris_client.Site</title>
<path fill="none" stroke="black" d="M192.44,-144.97C192.44,-144.97 192.44,-213.3 192.44,-213.3"/>
<polygon fill="none" stroke="black" points="192.44,-213.45 196.44,-219.45 192.44,-225.45 188.44,-219.45 192.44,-213.45"/>
</g>
<!-- webtris_client.TrafficObservation&#45;&gt;webtris_client.Site -->
<g id="edge2" class="edge">
<title>webtris_client.TrafficObservation&#45;&gt;webtris_client.Site</title>
<path fill="none" stroke="black" d="M369.88,-189.94C369.88,-189.94 369.88,-213.09 369.88,-213.09"/>
<polygon fill="none" stroke="black" points="369.88,-213.24 373.88,-219.24 369.88,-225.24 365.88,-219.24 369.88,-213.24"/>
</g>
</g>
</svg>
