<?xml version="1.0" encoding="UTF-8" standalone="no"?>
<!DOCTYPE svg PUBLIC "-//W3C//DTD SVG 1.1//EN"
 "http://www.w3.org/Graphics/SVG/1.1/DTD/svg11.dtd">
<!-- Generated by graphviz version 14.1.2 (20260124.0452)
 -->
<!-- Title: sites Pages: 1 -->
<svg width="414pt" height="365pt"
 viewBox="0.00 0.00 414.00 365.00" xmlns="http://www.w3.org/2000/svg" xmlns:xlink="http://www.w3.org/1999/xlink">
<g id="page0,1_graph0" class="graph" transform="scale(1 1) rotate(0) translate(4 360.5)">
<title>sites</title>
<polygon fill="white" stroke="none" points="-4,4 -4,-360.5 410,-360.5 410,4 -4,4"/>
<g id="clust1" class="cluster">
<title>cluster_SitesRequest</title>
<polygon fill="none" stroke="black" points="8,-8 8,-348.5 398,-348.5 398,-8 8,-8"/>
<text xml:space="preserve" text-anchor="middle" x="203" y="-331.2" font-family="Times,serif" font-size="14.00">SitesRequest</text>
</g>
<g id="clust2" class="cluster">
<title>cluster_SitesResponse</title>
<polygon fill="none" stroke="black" points="16,-16 16,-316 246,-316 246,-16 16,-16"/>
<text xml:space="preserve" text-anchor="middle" x="131" y="-298.7" font-family="Times,serif" font-size="14.00">SitesResponse</text>
</g>
<!-- webtris_client.SitesRequest -->
<g id="node1" class="node">
<title>webtris_client.SitesRequest</title>
<polygon fill="none" stroke="black" points="254.38,-180.5 254.38,-229.5 389.62,-229.5 389.62,-180.5 254.38,-180.5"/>
<text xml:space="preserve" text-anchor="start" x="275.88" y="-213.2" font-family="Times,serif" text-decoration="underline" font-size="14.00">ENDPOINT</text>
<text xml:space="preserve" text-anchor="start" x="343.38" y="-213.2" font-family="Times,serif" font-size="14.00"> : str</text>
<polyline fill="none" stroke="black" points="254.38,-205 389.62,-205"/>
<text xml:space="preserve" text-anchor="start" x="262.38" y="-187.7" font-family="Times,serif" font-size="14.00">send(): SitesResponse</text>
</g>
<!-- webtris_client.SitesRequest.SitesResponse -->
<g id="node2" class="node">
<title>webtris_client.SitesRequest.SitesResponse</title>
<polygon fill="none" stroke="black" points="23.62,-24.5 23.62,-90 238.38,-90 238.38,-24.5 23.62,-24.5"/>
<text xml:space="preserve" text-anchor="start" x="86.75" y="-72.7" font-family="Times,serif" font-size="14.00">row_count : int</text>
<text xml:space="preserve" text-anchor="start" x="86.75" y="-56.2" font-family="Times,serif" font-size="14.00">sites : list[_Site]</text>
<polyline fill="none" stroke="black" points="23.62,-49 238.38,-49"/>
<text xml:space="preserve" text-anchor="start" x="31.62" y="-32.7" font-family="Times,serif" text-decoration="underline" font-size="14.00">from_dict(data: dict): SitesResponse</text>
</g>
<!-- webtris_client.SitesRequest.SitesResponse._Site -->
<g id="node3" class="node">
<title>webtris_client.SitesRequest.SitesResponse._Site</title>
<polygon fill="none" stroke="black" points="79.5,-127 79.5,-283 182.5,-283 182.5,-127 79.5,-127"/>
<text xml:space="preserve" text-anchor="start" x="117.12" y="-265.7" font-family="Times,serif" font-size="14.00">_Site</text>
<polyline fill="none" stroke="black" points="79.5,-258.5 182.5,-258.5"/>
<text xml:space="preserve" text-anchor="start" x="87.5" y="-241.2" font-family="Times,serif" font-size="14.00">description : str</text>
<text xml:space="preserve" text-anchor="start" x="87.5" y="-224.7" font-family="Times,serif" font-size="14.00">id : int</text>
<text xml:space="preserve" text-anchor="start" x="87.5" y="-208.2" font-family="Times,serif" font-size="14.00">latitude : float</text>
<text xml:space="preserve" text-anchor="start" x="87.5" y="-191.7" font-family="Times,serif" font-size="14.00">longitude : float</text>
<text xml:space="preserve" text-anchor="start" x="87.5" y="-175.2" font-family="Times,serif" font-size="14.00">name : str</text>
<text xml:space="preserve" text-anchor="start" x="87.5" y="-158.7" font-family="Times,serif" font-size="14.00">status : str</text>
<polyline fill="none" stroke="black" points="79.5,-151.5 182.5,-151.5"/>
<text xml:space="preserve" text-anchor="start" x="129.12" y="-134.2" font-family="Times,serif" font-size="14.00"> </text>
</g>
<!-- webtris_client.SitesRequest.SitesResponse._Site&#45;&gt;webtris_client.SitesRequest.SitesResponse -->
<g id="edge1" class="edge">
<title>webtris_client.SitesRequest.SitesResponse._Site&#45;&gt;webtris_client.SitesRequest.SitesResponse</title>
<path fill="none" stroke="black" d="M131,-126.8C131,-126.8 131,-103.33 131,-103.33"/>
<polygon fill="black" stroke="black" points="131,-103.17 127,-97.17 131,-91.17 135,-97.17 131,-103.17"/>
</g>
</g>
</svg>
